STARTFONT 2.1
FONT -JDECW-Screen-Medium-R-Normal--18-180-75-75-M-80-ISO8859-1
SIZE 18 75 75
FONTBOUNDINGBOX 8 18 0 -3

STARTPROPERTIES 26
FONTNAME_REGISTRY ""
FAMILY_NAME "Screen"
FOUNDRY "JDECW"
WEIGHT_NAME "Medium"
SLANT "R"
SETWIDTH_NAME "Normal"
ADD_STYLE_NAME ""
PIXEL_SIZE 18
POINT_SIZE 180
RESOLUTION_X 75
RESOLUTION_Y 75
SPACING "M"
AVERAGE_WIDTH 80
CHARSET_REGISTRY "ISO8859"
CHARSET_ENCODING "1"
DEVICE_FONT_NAME "Screen-ISO8859-1"
CHARSET_COLLECTIONS "ISO8859-1"
FULL_NAME "Screen ISO8859-1"
COPYRIGHT "Copyright (c) 1988 Digital Equipment Corporation Japan."
CAP_HEIGHT 13
X_HEIGHT 8
WEIGHT 10
QUAD_WIDTH 8
DEFAULT_CHAR 32
FONT_DESCENT 3
FONT_ASCENT 15
ENDPROPERTIES

CHARS 224

STARTCHAR C20
ENCODING 32
SWIDTH 450 0
DWIDTH 8 0
BBX 8 18 0 -3
BITMAP
00
00
00
00
00
00
00
00
00
00
00
00
00
00
00
00
00
00
ENDCHAR

STARTCHAR C21
ENCODING 33
SWIDTH 450 0
DWIDTH 8 0
BBX 8 18 0 -3
BITMAP
00
00
10
10
10
10
10
10
10
10
10
00
00
10
10
00
00
00
ENDCHAR

STARTCHAR C22
ENCODING 34
SWIDTH 450 0
DWIDTH 8 0
BBX 8 18 0 -3
BITMAP
00
00
50
50
50
00
00
00
00
00
00
00
00
00
00
00
00
00
ENDCHAR

STARTCHAR C23
ENCODING 35
SWIDTH 450 0
DWIDTH 8 0
BBX 8 18 0 -3
BITMAP
00
00
28
28
28
28
FE
28
28
28
28
FE
28
28
28
28
00
00
ENDCHAR

STARTCHAR C24
ENCODING 36
SWIDTH 450 0
DWIDTH 8 0
BBX 8 18 0 -3
BITMAP
00
00
10
7C
92
92
92
50
30
18
14
92
92
92
7C
10
00
00
ENDCHAR

STARTCHAR C25
ENCODING 37
SWIDTH 450 0
DWIDTH 8 0
BBX 8 18 0 -3
BITMAP
00
00
42
A2
A4
A4
48
08
10
10
20
24
4A
4A
8A
84
00
00
ENDCHAR

STARTCHAR C26
ENCODING 38
SWIDTH 450 0
DWIDTH 8 0
BBX 8 18 0 -3
BITMAP
00
00
20
50
50
50
50
62
22
22
62
94
94
8C
8C
72
00
00
ENDCHAR

STARTCHAR C27
ENCODING 39
SWIDTH 450 0
DWIDTH 8 0
BBX 8 18 0 -3
BITMAP
00
00
20
20
40
00
00
00
00
00
00
00
00
00
00
00
00
00
ENDCHAR

STARTCHAR C28
ENCODING 40
SWIDTH 450 0
DWIDTH 8 0
BBX 8 18 0 -3
BITMAP
00
04
08
08
10
10
10
10
10
10
10
10
10
08
08
04
00
00
ENDCHAR

STARTCHAR C29
ENCODING 41
SWIDTH 450 0
DWIDTH 8 0
BBX 8 18 0 -3
BITMAP
00
40
20
20
10
10
10
10
10
10
10
10
10
20
20
40
00
00
ENDCHAR

STARTCHAR C2a
ENCODING 42
SWIDTH 450 0
DWIDTH 8 0
BBX 8 18 0 -3
BITMAP
00
00
00
00
00
10
10
54
38
10
38
54
10
10
00
00
00
00
ENDCHAR

STARTCHAR C2b
ENCODING 43
SWIDTH 450 0
DWIDTH 8 0
BBX 8 18 0 -3
BITMAP
00
00
00
00
10
10
10
10
10
FE
10
10
10
10
10
00
00
00
ENDCHAR

STARTCHAR C2c
ENCODING 44
SWIDTH 450 0
DWIDTH 8 0
BBX 8 18 0 -3
BITMAP
00
00
00
00
00
00
00
00
00
00
00
00
00
30
30
20
40
00
ENDCHAR

STARTCHAR C2d
ENCODING 45
SWIDTH 450 0
DWIDTH 8 0
BBX 8 18 0 -3
BITMAP
00
00
00
00
00
00
00
00
00
FE
00
00
00
00
00
00
00
00
ENDCHAR

STARTCHAR C2e
ENCODING 46
SWIDTH 450 0
DWIDTH 8 0
BBX 8 18 0 -3
BITMAP
00
00
00
00
00
00
00
00
00
00
00
00
00
30
30
00
00
00
ENDCHAR

STARTCHAR C2f
ENCODING 47
SWIDTH 450 0
DWIDTH 8 0
BBX 8 18 0 -3
BITMAP
00
00
02
02
04
04
08
08
10
10
20
20
40
40
80
80
00
00
ENDCHAR

STARTCHAR C30
ENCODING 48
SWIDTH 450 0
DWIDTH 8 0
BBX 8 18 0 -3
BITMAP
00
00
38
44
44
44
44
44
44
44
44
44
44
44
38
00
00
00
ENDCHAR

STARTCHAR C31
ENCODING 49
SWIDTH 450 0
DWIDTH 8 0
BBX 8 18 0 -3
BITMAP
00
00
30
50
10
10
10
10
10
10
10
10
10
10
7C
00
00
00
ENDCHAR

STARTCHAR C32
ENCODING 50
SWIDTH 450 0
DWIDTH 8 0
BBX 8 18 0 -3
BITMAP
00
00
38
44
44
44
44
04
08
08
10
10
20
40
7C
00
00
00
ENDCHAR

STARTCHAR C33
ENCODING 51
SWIDTH 450 0
DWIDTH 8 0
BBX 8 18 0 -3
BITMAP
00
00
38
44
44
04
04
08
38
04
04
04
44
44
38
00
00
00
ENDCHAR

STARTCHAR C34
ENCODING 52
SWIDTH 450 0
DWIDTH 8 0
BBX 8 18 0 -3
BITMAP
00
00
08
08
18
18
28
28
48
48
88
FC
08
08
08
00
00
00
ENDCHAR

STARTCHAR C35
ENCODING 53
SWIDTH 450 0
DWIDTH 8 0
BBX 8 18 0 -3
BITMAP
00
00
78
40
40
40
78
44
04
04
04
04
44
44
38
00
00
00
ENDCHAR

STARTCHAR C36
ENCODING 54
SWIDTH 450 0
DWIDTH 8 0
BBX 8 18 0 -3
BITMAP
00
00
38
44
44
40
40
58
64
44
44
44
44
44
38
00
00
00
ENDCHAR

STARTCHAR C37
ENCODING 55
SWIDTH 450 0
DWIDTH 8 0
BBX 8 18 0 -3
BITMAP
00
00
FC
84
84
88
08
08
10
10
10
20
20
20
20
00
00
00
ENDCHAR

STARTCHAR C38
ENCODING 56
SWIDTH 450 0
DWIDTH 8 0
BBX 8 18 0 -3
BITMAP
00
00
38
44
44
44
44
44
38
44
44
44
44
44
38
00
00
00
ENDCHAR

STARTCHAR C39
ENCODING 57
SWIDTH 450 0
DWIDTH 8 0
BBX 8 18 0 -3
BITMAP
00
00
38
44
44
44
44
44
4C
34
04
04
44
44
38
00
00
00
ENDCHAR

STARTCHAR C3a
ENCODING 58
SWIDTH 450 0
DWIDTH 8 0
BBX 8 18 0 -3
BITMAP
00
00
00
00
00
00
30
30
00
00
00
00
00
30
30
00
00
00
ENDCHAR

STARTCHAR C3b
ENCODING 59
SWIDTH 450 0
DWIDTH 8 0
BBX 8 18 0 -3
BITMAP
00
00
00
00
00
00
30
30
00
00
00
00
00
30
30
20
40
00
ENDCHAR

STARTCHAR C3c
ENCODING 60
SWIDTH 450 0
DWIDTH 8 0
BBX 8 18 0 -3
BITMAP
00
00
00
00
04
08
10
20
40
80
40
20
10
08
04
00
00
00
ENDCHAR

STARTCHAR C3d
ENCODING 61
SWIDTH 450 0
DWIDTH 8 0
BBX 8 18 0 -3
BITMAP
00
00
00
00
00
00
00
FE
00
00
00
FE
00
00
00
00
00
00
ENDCHAR

STARTCHAR C3e
ENCODING 62
SWIDTH 450 0
DWIDTH 8 0
BBX 8 18 0 -3
BITMAP
00
00
00
00
80
40
20
10
08
04
08
10
20
40
80
00
00
00
ENDCHAR

STARTCHAR C3f
ENCODING 63
SWIDTH 450 0
DWIDTH 8 0
BBX 8 18 0 -3
BITMAP
00
00
38
44
44
44
04
04
08
10
10
10
00
10
10
00
00
00
ENDCHAR

STARTCHAR C40
ENCODING 64
SWIDTH 450 0
DWIDTH 8 0
BBX 8 18 0 -3
BITMAP
00
00
00
38
44
82
9A
AA
AA
AA
AA
AA
96
40
38
00
00
00
ENDCHAR

STARTCHAR C41
ENCODING 65
SWIDTH 450 0
DWIDTH 8 0
BBX 8 18 0 -3
BITMAP
00
00
10
28
28
44
44
44
82
FE
82
82
82
82
82
00
00
00
ENDCHAR

STARTCHAR C42
ENCODING 66
SWIDTH 450 0
DWIDTH 8 0
BBX 8 18 0 -3
BITMAP
00
00
F8
84
82
82
82
84
F8
84
82
82
82
84
F8
00
00
00
ENDCHAR

STARTCHAR C43
ENCODING 67
SWIDTH 450 0
DWIDTH 8 0
BBX 8 18 0 -3
BITMAP
00
00
38
44
82
82
82
80
80
80
82
82
82
44
38
00
00
00
ENDCHAR

STARTCHAR C44
ENCODING 68
SWIDTH 450 0
DWIDTH 8 0
BBX 8 18 0 -3
BITMAP
00
00
F8
84
82
82
82
82
82
82
82
82
82
84
F8
00
00
00
ENDCHAR

STARTCHAR C45
ENCODING 69
SWIDTH 450 0
DWIDTH 8 0
BBX 8 18 0 -3
BITMAP
00
00
FE
80
80
80
80
80
FC
80
80
80
80
80
FE
00
00
00
ENDCHAR

STARTCHAR C46
ENCODING 70
SWIDTH 450 0
DWIDTH 8 0
BBX 8 18 0 -3
BITMAP
00
00
FE
80
80
80
80
80
FC
80
80
80
80
80
80
00
00
00
ENDCHAR

STARTCHAR C47
ENCODING 71
SWIDTH 450 0
DWIDTH 8 0
BBX 8 18 0 -3
BITMAP
00
00
38
44
82
82
80
80
80
9E
82
82
82
44
38
00
00
00
ENDCHAR

STARTCHAR C48
ENCODING 72
SWIDTH 450 0
DWIDTH 8 0
BBX 8 18 0 -3
BITMAP
00
00
82
82
82
82
82
82
FE
82
82
82
82
82
82
00
00
00
ENDCHAR

STARTCHAR C49
ENCODING 73
SWIDTH 450 0
DWIDTH 8 0
BBX 8 18 0 -3
BITMAP
00
00
38
10
10
10
10
10
10
10
10
10
10
10
38
00
00
00
ENDCHAR

STARTCHAR C4a
ENCODING 74
SWIDTH 450 0
DWIDTH 8 0
BBX 8 18 0 -3
BITMAP
00
00
3C
08
08
08
08
08
08
08
08
88
88
88
70
00
00
00
ENDCHAR

STARTCHAR C4b
ENCODING 75
SWIDTH 450 0
DWIDTH 8 0
BBX 8 18 0 -3
BITMAP
00
00
82
84
88
90
A0
D0
90
88
88
84
84
82
82
00
00
00
ENDCHAR

STARTCHAR C4c
ENCODING 76
SWIDTH 450 0
DWIDTH 8 0
BBX 8 18 0 -3
BITMAP
00
00
80
80
80
80
80
80
80
80
80
80
80
80
FC
00
00
00
ENDCHAR

STARTCHAR C4d
ENCODING 77
SWIDTH 450 0
DWIDTH 8 0
BBX 8 18 0 -3
BITMAP
00
00
82
82
C6
C6
AA
AA
AA
92
92
82
82
82
82
00
00
00
ENDCHAR

STARTCHAR C4e
ENCODING 78
SWIDTH 450 0
DWIDTH 8 0
BBX 8 18 0 -3
BITMAP
00
00
82
82
C2
C2
A2
A2
92
8A
8A
86
86
82
82
00
00
00
ENDCHAR

STARTCHAR C4f
ENCODING 79
SWIDTH 450 0
DWIDTH 8 0
BBX 8 18 0 -3
BITMAP
00
00
38
44
82
82
82
82
82
82
82
82
82
44
38
00
00
00
ENDCHAR

STARTCHAR C50
ENCODING 80
SWIDTH 450 0
DWIDTH 8 0
BBX 8 18 0 -3
BITMAP
00
00
F0
88
84
84
84
88
F0
80
80
80
80
80
80
00
00
00
ENDCHAR

STARTCHAR C51
ENCODING 81
SWIDTH 450 0
DWIDTH 8 0
BBX 8 18 0 -3
BITMAP
00
00
38
44
82
82
82
82
82
82
82
82
92
4C
3C
02
00
00
ENDCHAR

STARTCHAR C52
ENCODING 82
SWIDTH 450 0
DWIDTH 8 0
BBX 8 18 0 -3
BITMAP
00
00
F8
84
82
82
82
84
F8
88
88
84
84
82
82
00
00
00
ENDCHAR

STARTCHAR C53
ENCODING 83
SWIDTH 450 0
DWIDTH 8 0
BBX 8 18 0 -3
BITMAP
00
00
38
44
82
82
82
40
30
0C
82
82
82
44
38
00
00
00
ENDCHAR

STARTCHAR C54
ENCODING 84
SWIDTH 450 0
DWIDTH 8 0
BBX 8 18 0 -3
BITMAP
00
00
FE
10
10
10
10
10
10
10
10
10
10
10
10
00
00
00
ENDCHAR

STARTCHAR C55
ENCODING 85
SWIDTH 450 0
DWIDTH 8 0
BBX 8 18 0 -3
BITMAP
00
00
82
82
82
82
82
82
82
82
82
82
82
44
38
00
00
00
ENDCHAR

STARTCHAR C56
ENCODING 86
SWIDTH 450 0
DWIDTH 8 0
BBX 8 18 0 -3
BITMAP
00
00
82
82
82
82
82
44
44
44
44
28
28
28
10
00
00
00
ENDCHAR

STARTCHAR C57
ENCODING 87
SWIDTH 450 0
DWIDTH 8 0
BBX 8 18 0 -3
BITMAP
00
00
82
82
82
82
82
82
92
92
AA
AA
AA
44
44
00
00
00
ENDCHAR

STARTCHAR C58
ENCODING 88
SWIDTH 450 0
DWIDTH 8 0
BBX 8 18 0 -3
BITMAP
00
00
82
82
44
44
28
28
10
28
28
44
44
82
82
00
00
00
ENDCHAR

STARTCHAR C59
ENCODING 89
SWIDTH 450 0
DWIDTH 8 0
BBX 8 18 0 -3
BITMAP
00
00
82
82
44
44
28
28
10
10
10
10
10
10
10
00
00
00
ENDCHAR

STARTCHAR C5a
ENCODING 90
SWIDTH 450 0
DWIDTH 8 0
BBX 8 18 0 -3
BITMAP
00
00
FE
02
04
04
08
08
10
10
20
20
40
80
FE
00
00
00
ENDCHAR

STARTCHAR C5b
ENCODING 91
SWIDTH 450 0
DWIDTH 8 0
BBX 8 18 0 -3
BITMAP
00
1C
10
10
10
10
10
10
10
10
10
10
10
10
10
1C
00
00
ENDCHAR

STARTCHAR C5c
ENCODING 92
SWIDTH 450 0
DWIDTH 8 0
BBX 8 18 0 -3
BITMAP
00
00
80
80
40
40
20
20
10
10
08
08
04
04
02
02
00
00
ENDCHAR

STARTCHAR C5d
ENCODING 93
SWIDTH 450 0
DWIDTH 8 0
BBX 8 18 0 -3
BITMAP
00
70
10
10
10
10
10
10
10
10
10
10
10
10
10
70
00
00
ENDCHAR

STARTCHAR C5e
ENCODING 94
SWIDTH 450 0
DWIDTH 8 0
BBX 8 18 0 -3
BITMAP
00
00
10
28
44
00
00
00
00
00
00
00
00
00
00
00
00
00
ENDCHAR

STARTCHAR C5f
ENCODING 95
SWIDTH 450 0
DWIDTH 8 0
BBX 8 18 0 -3
BITMAP
00
00
00
00
00
00
00
00
00
00
00
00
00
00
00
FE
00
00
ENDCHAR

STARTCHAR C60
ENCODING 96
SWIDTH 450 0
DWIDTH 8 0
BBX 8 18 0 -3
BITMAP
00
40
40
20
00
00
00
00
00
00
00
00
00
00
00
00
00
00
ENDCHAR

STARTCHAR C61
ENCODING 97
SWIDTH 450 0
DWIDTH 8 0
BBX 8 18 0 -3
BITMAP
00
00
00
00
00
00
00
78
04
04
7C
84
84
8C
74
00
00
00
ENDCHAR

STARTCHAR C62
ENCODING 98
SWIDTH 450 0
DWIDTH 8 0
BBX 8 18 0 -3
BITMAP
00
00
80
80
80
80
80
B8
C4
84
84
84
84
C4
B8
00
00
00
ENDCHAR

STARTCHAR C63
ENCODING 99
SWIDTH 450 0
DWIDTH 8 0
BBX 8 18 0 -3
BITMAP
00
00
00
00
00
00
00
78
84
80
80
80
84
84
78
00
00
00
ENDCHAR

STARTCHAR C64
ENCODING 100
SWIDTH 450 0
DWIDTH 8 0
BBX 8 18 0 -3
BITMAP
00
00
04
04
04
04
04
74
8C
84
84
84
84
8C
74
00
00
00
ENDCHAR

STARTCHAR C65
ENCODING 101
SWIDTH 450 0
DWIDTH 8 0
BBX 8 18 0 -3
BITMAP
00
00
00
00
00
00
00
78
84
84
FC
80
80
84
78
00
00
00
ENDCHAR

STARTCHAR C66
ENCODING 102
SWIDTH 450 0
DWIDTH 8 0
BBX 8 18 0 -3
BITMAP
00
00
18
24
20
20
20
FC
20
20
20
20
20
20
20
00
00
00
ENDCHAR

STARTCHAR C67
ENCODING 103
SWIDTH 450 0
DWIDTH 8 0
BBX 8 18 0 -3
BITMAP
00
00
00
00
00
00
00
3A
44
44
44
38
40
7C
82
82
7C
00
ENDCHAR

STARTCHAR C68
ENCODING 104
SWIDTH 450 0
DWIDTH 8 0
BBX 8 18 0 -3
BITMAP
00
00
80
80
80
80
80
B8
C4
84
84
84
84
84
84
00
00
00
ENDCHAR

STARTCHAR C69
ENCODING 105
SWIDTH 450 0
DWIDTH 8 0
BBX 8 18 0 -3
BITMAP
00
00
10
10
00
00
00
10
10
10
10
10
10
10
10
00
00
00
ENDCHAR

STARTCHAR C6a
ENCODING 106
SWIDTH 450 0
DWIDTH 8 0
BBX 8 18 0 -3
BITMAP
00
00
08
08
00
00
00
08
08
08
08
08
08
08
88
88
70
00
ENDCHAR

STARTCHAR C6b
ENCODING 107
SWIDTH 450 0
DWIDTH 8 0
BBX 8 18 0 -3
BITMAP
00
00
80
80
80
80
80
88
90
A0
C0
A0
90
88
84
00
00
00
ENDCHAR

STARTCHAR C6c
ENCODING 108
SWIDTH 450 0
DWIDTH 8 0
BBX 8 18 0 -3
BITMAP
00
00
30
10
10
10
10
10
10
10
10
10
10
10
10
00
00
00
ENDCHAR

STARTCHAR C6d
ENCODING 109
SWIDTH 450 0
DWIDTH 8 0
BBX 8 18 0 -3
BITMAP
00
00
00
00
00
00
00
6C
92
92
92
92
92
92
92
00
00
00
ENDCHAR

STARTCHAR C6e
ENCODING 110
SWIDTH 450 0
DWIDTH 8 0
BBX 8 18 0 -3
BITMAP
00
00
00
00
00
00
00
B8
C4
84
84
84
84
84
84
00
00
00
ENDCHAR

STARTCHAR C6f
ENCODING 111
SWIDTH 450 0
DWIDTH 8 0
BBX 8 18 0 -3
BITMAP
00
00
00
00
00
00
00
78
84
84
84
84
84
84
78
00
00
00
ENDCHAR

STARTCHAR C70
ENCODING 112
SWIDTH 450 0
DWIDTH 8 0
BBX 8 18 0 -3
BITMAP
00
00
00
00
00
00
00
B8
C4
84
84
84
C4
B8
80
80
80
00
ENDCHAR

STARTCHAR C71
ENCODING 113
SWIDTH 450 0
DWIDTH 8 0
BBX 8 18 0 -3
BITMAP
00
00
00
00
00
00
00
74
8C
84
84
84
8C
74
04
04
04
00
ENDCHAR

STARTCHAR C72
ENCODING 114
SWIDTH 450 0
DWIDTH 8 0
BBX 8 18 0 -3
BITMAP
00
00
00
00
00
00
00
4C
54
60
40
40
40
40
40
00
00
00
ENDCHAR

STARTCHAR C73
ENCODING 115
SWIDTH 450 0
DWIDTH 8 0
BBX 8 18 0 -3
BITMAP
00
00
00
00
00
00
00
78
84
84
60
18
84
84
78
00
00
00
ENDCHAR

STARTCHAR C74
ENCODING 116
SWIDTH 450 0
DWIDTH 8 0
BBX 8 18 0 -3
BITMAP
00
00
00
20
20
20
20
FC
20
20
20
20
20
24
18
00
00
00
ENDCHAR

STARTCHAR C75
ENCODING 117
SWIDTH 450 0
DWIDTH 8 0
BBX 8 18 0 -3
BITMAP
00
00
00
00
00
00
00
84
84
84
84
84
84
8C
74
00
00
00
ENDCHAR

STARTCHAR C76
ENCODING 118
SWIDTH 450 0
DWIDTH 8 0
BBX 8 18 0 -3
BITMAP
00
00
00
00
00
00
00
84
84
84
48
48
48
30
30
00
00
00
ENDCHAR

STARTCHAR C77
ENCODING 119
SWIDTH 450 0
DWIDTH 8 0
BBX 8 18 0 -3
BITMAP
00
00
00
00
00
00
00
92
92
92
92
92
92
92
6C
00
00
00
ENDCHAR

STARTCHAR C78
ENCODING 120
SWIDTH 450 0
DWIDTH 8 0
BBX 8 18 0 -3
BITMAP
00
00
00
00
00
00
00
84
48
48
30
30
48
48
84
00
00
00
ENDCHAR

STARTCHAR C79
ENCODING 121
SWIDTH 450 0
DWIDTH 8 0
BBX 8 18 0 -3
BITMAP
00
00
00
00
00
00
00
44
44
44
44
44
3C
04
04
44
38
00
ENDCHAR

STARTCHAR C7a
ENCODING 122
SWIDTH 450 0
DWIDTH 8 0
BBX 8 18 0 -3
BITMAP
00
00
00
00
00
00
00
FC
04
08
10
20
40
80
FC
00
00
00
ENDCHAR

STARTCHAR C7b
ENCODING 123
SWIDTH 450 0
DWIDTH 8 0
BBX 8 18 0 -3
BITMAP
00
04
08
10
10
10
10
08
30
08
10
10
10
10
08
04
00
00
ENDCHAR

STARTCHAR C7c
ENCODING 124
SWIDTH 450 0
DWIDTH 8 0
BBX 8 18 0 -3
BITMAP
00
00
10
10
10
10
10
10
10
10
10
10
10
10
10
00
00
00
ENDCHAR

STARTCHAR C7d
ENCODING 125
SWIDTH 450 0
DWIDTH 8 0
BBX 8 18 0 -3
BITMAP
00
40
20
10
10
10
10
20
18
20
10
10
10
10
20
40
00
00
ENDCHAR

STARTCHAR C7e
ENCODING 126
SWIDTH 450 0
DWIDTH 8 0
BBX 8 18 0 -3
BITMAP
00
64
98
00
00
00
00
00
00
00
00
00
00
00
00
00
00
00
ENDCHAR

STARTCHAR C7f
ENCODING 127
SWIDTH 450 0
DWIDTH 8 0
BBX 8 18 0 -3
BITMAP
00
00
00
00
00
00
00
00
00
00
00
00
00
00
00
00
00
00
ENDCHAR

STARTCHAR C80
ENCODING 128
SWIDTH 450 0
DWIDTH 8 0
BBX 8 18 0 -3
BITMAP
00
00
00
00
00
00
00
00
00
00
00
00
00
00
00
00
00
00
ENDCHAR

STARTCHAR C81
ENCODING 129
SWIDTH 450 0
DWIDTH 8 0
BBX 8 18 0 -3
BITMAP
00
00
00
00
00
00
00
00
00
00
00
00
00
00
00
00
00
00
ENDCHAR

STARTCHAR C82
ENCODING 130
SWIDTH 450 0
DWIDTH 8 0
BBX 8 18 0 -3
BITMAP
00
00
00
00
00
00
00
00
00
00
00
00
00
00
00
00
00
00
ENDCHAR

STARTCHAR C83
ENCODING 131
SWIDTH 450 0
DWIDTH 8 0
BBX 8 18 0 -3
BITMAP
00
00
00
00
00
00
00
00
00
00
00
00
00
00
00
00
00
00
ENDCHAR

STARTCHAR C84
ENCODING 132
SWIDTH 450 0
DWIDTH 8 0
BBX 8 18 0 -3
BITMAP
00
00
00
00
00
00
00
00
00
00
00
00
00
00
00
00
00
00
ENDCHAR

STARTCHAR C85
ENCODING 133
SWIDTH 450 0
DWIDTH 8 0
BBX 8 18 0 -3
BITMAP
00
00
00
00
00
00
00
00
00
00
00
00
00
00
00
00
00
00
ENDCHAR

STARTCHAR C86
ENCODING 134
SWIDTH 450 0
DWIDTH 8 0
BBX 8 18 0 -3
BITMAP
00
00
00
00
00
00
00
00
00
00
00
00
00
00
00
00
00
00
ENDCHAR

STARTCHAR C87
ENCODING 135
SWIDTH 450 0
DWIDTH 8 0
BBX 8 18 0 -3
BITMAP
00
00
00
00
00
00
00
00
00
00
00
00
00
00
00
00
00
00
ENDCHAR

STARTCHAR C88
ENCODING 136
SWIDTH 450 0
DWIDTH 8 0
BBX 8 18 0 -3
BITMAP
00
00
00
00
00
00
00
00
00
00
00
00
00
00
00
00
00
00
ENDCHAR

STARTCHAR C89
ENCODING 137
SWIDTH 450 0
DWIDTH 8 0
BBX 8 18 0 -3
BITMAP
00
00
00
00
00
00
00
00
00
00
00
00
00
00
00
00
00
00
ENDCHAR

STARTCHAR C8a
ENCODING 138
SWIDTH 450 0
DWIDTH 8 0
BBX 8 18 0 -3
BITMAP
00
00
00
00
00
00
00
00
00
00
00
00
00
00
00
00
00
00
ENDCHAR

STARTCHAR C8b
ENCODING 139
SWIDTH 450 0
DWIDTH 8 0
BBX 8 18 0 -3
BITMAP
00
00
00
00
00
00
00
00
00
00
00
00
00
00
00
00
00
00
ENDCHAR

STARTCHAR C8c
ENCODING 140
SWIDTH 450 0
DWIDTH 8 0
BBX 8 18 0 -3
BITMAP
00
00
00
00
00
00
00
00
00
00
00
00
00
00
00
00
00
00
ENDCHAR

STARTCHAR C8d
ENCODING 141
SWIDTH 450 0
DWIDTH 8 0
BBX 8 18 0 -3
BITMAP
00
00
00
00
00
00
00
00
00
00
00
00
00
00
00
00
00
00
ENDCHAR

STARTCHAR C8e
ENCODING 142
SWIDTH 450 0
DWIDTH 8 0
BBX 8 18 0 -3
BITMAP
00
00
00
00
00
00
00
00
00
00
00
00
00
00
00
00
00
00
ENDCHAR

STARTCHAR C8f
ENCODING 143
SWIDTH 450 0
DWIDTH 8 0
BBX 8 18 0 -3
BITMAP
00
00
00
00
00
00
00
00
00
00
00
00
00
00
00
00
00
00
ENDCHAR

STARTCHAR C90
ENCODING 144
SWIDTH 450 0
DWIDTH 8 0
BBX 8 18 0 -3
BITMAP
00
00
00
00
00
00
00
00
00
00
00
00
00
00
00
00
00
00
ENDCHAR

STARTCHAR C91
ENCODING 145
SWIDTH 450 0
DWIDTH 8 0
BBX 8 18 0 -3
BITMAP
00
00
00
00
00
00
00
00
00
00
00
00
00
00
00
00
00
00
ENDCHAR

STARTCHAR C92
ENCODING 146
SWIDTH 450 0
DWIDTH 8 0
BBX 8 18 0 -3
BITMAP
00
00
00
00
00
00
00
00
00
00
00
00
00
00
00
00
00
00
ENDCHAR

STARTCHAR C93
ENCODING 147
SWIDTH 450 0
DWIDTH 8 0
BBX 8 18 0 -3
BITMAP
00
00
00
00
00
00
00
00
00
00
00
00
00
00
00
00
00
00
ENDCHAR

STARTCHAR C94
ENCODING 148
SWIDTH 450 0
DWIDTH 8 0
BBX 8 18 0 -3
BITMAP
00
00
00
00
00
00
00
00
00
00
00
00
00
00
00
00
00
00
ENDCHAR

STARTCHAR C95
ENCODING 149
SWIDTH 450 0
DWIDTH 8 0
BBX 8 18 0 -3
BITMAP
00
00
00
00
00
00
00
00
00
00
00
00
00
00
00
00
00
00
ENDCHAR

STARTCHAR C96
ENCODING 150
SWIDTH 450 0
DWIDTH 8 0
BBX 8 18 0 -3
BITMAP
00
00
00
00
00
00
00
00
00
00
00
00
00
00
00
00
00
00
ENDCHAR

STARTCHAR C97
ENCODING 151
SWIDTH 450 0
DWIDTH 8 0
BBX 8 18 0 -3
BITMAP
00
00
00
00
00
00
00
00
00
00
00
00
00
00
00
00
00
00
ENDCHAR

STARTCHAR C98
ENCODING 152
SWIDTH 450 0
DWIDTH 8 0
BBX 8 18 0 -3
BITMAP
00
00
00
00
00
00
00
00
00
00
00
00
00
00
00
00
00
00
ENDCHAR

STARTCHAR C99
ENCODING 153
SWIDTH 450 0
DWIDTH 8 0
BBX 8 18 0 -3
BITMAP
00
00
00
00
00
00
00
00
00
00
00
00
00
00
00
00
00
00
ENDCHAR

STARTCHAR C9a
ENCODING 154
SWIDTH 450 0
DWIDTH 8 0
BBX 8 18 0 -3
BITMAP
00
00
00
00
00
00
00
00
00
00
00
00
00
00
00
00
00
00
ENDCHAR

STARTCHAR C9b
ENCODING 155
SWIDTH 450 0
DWIDTH 8 0
BBX 8 18 0 -3
BITMAP
00
00
00
00
00
00
00
00
00
00
00
00
00
00
00
00
00
00
ENDCHAR

STARTCHAR C9c
ENCODING 156
SWIDTH 450 0
DWIDTH 8 0
BBX 8 18 0 -3
BITMAP
00
00
00
00
00
00
00
00
00
00
00
00
00
00
00
00
00
00
ENDCHAR

STARTCHAR C9d
ENCODING 157
SWIDTH 450 0
DWIDTH 8 0
BBX 8 18 0 -3
BITMAP
00
00
00
00
00
00
00
00
00
00
00
00
00
00
00
00
00
00
ENDCHAR

STARTCHAR C9e
ENCODING 158
SWIDTH 450 0
DWIDTH 8 0
BBX 8 18 0 -3
BITMAP
00
00
00
00
00
00
00
00
00
00
00
00
00
00
00
00
00
00
ENDCHAR

STARTCHAR C9f
ENCODING 159
SWIDTH 450 0
DWIDTH 8 0
BBX 8 18 0 -3
BITMAP
00
00
00
00
00
00
00
00
00
00
00
00
00
00
00
00
00
00
ENDCHAR

STARTCHAR Ca0
ENCODING 160
SWIDTH 450 0
DWIDTH 8 0
BBX 8 18 0 -3
BITMAP
00
00
00
00
00
00
00
00
00
00
00
00
00
00
00
00
00
00
ENDCHAR

STARTCHAR Ca1
ENCODING 161
SWIDTH 450 0
DWIDTH 8 0
BBX 8 18 0 -3
BITMAP
00
00
10
10
00
10
10
10
10
10
10
10
10
10
10
00
00
00
ENDCHAR

STARTCHAR Ca2
ENCODING 162
SWIDTH 450 0
DWIDTH 8 0
BBX 8 18 0 -3
BITMAP
00
00
10
10
78
84
80
80
80
80
80
84
84
78
10
10
00
00
ENDCHAR

STARTCHAR Ca3
ENCODING 163
SWIDTH 450 0
DWIDTH 8 0
BBX 8 18 0 -3
BITMAP
00
00
18
24
24
24
20
20
20
F8
20
20
20
72
CC
00
00
00
ENDCHAR

STARTCHAR Ca4
ENCODING 164
SWIDTH 450 0
DWIDTH 8 0
BBX 8 18 0 -3
BITMAP
00
00
00
00
00
82
44
38
44
44
44
38
44
82
00
00
00
00
ENDCHAR

STARTCHAR Ca5
ENCODING 165
SWIDTH 450 0
DWIDTH 8 0
BBX 8 18 0 -3
BITMAP
00
00
82
82
44
44
28
FE
10
10
FE
10
10
10
10
10
00
00
ENDCHAR

STARTCHAR Ca6
ENCODING 166
SWIDTH 450 0
DWIDTH 8 0
BBX 8 18 0 -3
BITMAP
00
00
10
10
10
10
10
10
00
00
10
10
10
10
10
10
00
00
ENDCHAR

STARTCHAR Ca7
ENCODING 167
SWIDTH 450 0
DWIDTH 8 0
BBX 8 18 0 -3
BITMAP
00
00
00
78
84
84
80
78
84
84
78
04
84
84
78
00
00
00
ENDCHAR

STARTCHAR Ca8
ENCODING 168
SWIDTH 450 0
DWIDTH 8 0
BBX 8 18 0 -3
BITMAP
00
00
24
24
00
00
00
00
00
00
00
00
00
00
00
00
00
00
ENDCHAR

STARTCHAR Ca9
ENCODING 169
SWIDTH 450 0
DWIDTH 8 0
BBX 8 18 0 -3
BITMAP
00
00
00
00
38
44
82
BA
A2
A2
BA
82
44
38
00
00
00
00
ENDCHAR

STARTCHAR Caa
ENCODING 170
SWIDTH 450 0
DWIDTH 8 0
BBX 8 18 0 -3
BITMAP
00
38
04
04
3C
44
44
3C
00
7C
00
00
00
00
00
00
00
00
ENDCHAR

STARTCHAR Cab
ENCODING 171
SWIDTH 450 0
DWIDTH 8 0
BBX 8 18 0 -3
BITMAP
00
00
00
00
00
00
12
24
48
90
48
24
12
00
00
00
00
00
ENDCHAR

STARTCHAR Cac
ENCODING 172
SWIDTH 450 0
DWIDTH 8 0
BBX 8 18 0 -3
BITMAP
00
00
00
00
00
00
00
00
FE
02
02
00
00
00
00
00
00
00
ENDCHAR

STARTCHAR Cad
ENCODING 173
SWIDTH 450 0
DWIDTH 8 0
BBX 8 18 0 -3
BITMAP
00
00
00
00
00
00
00
00
7E
00
00
00
00
00
00
00
00
00
ENDCHAR

STARTCHAR Cae
ENCODING 174
SWIDTH 450 0
DWIDTH 8 0
BBX 8 18 0 -3
BITMAP
00
00
00
38
44
82
BA
AA
BA
B2
AA
AA
82
44
38
00
00
00
ENDCHAR

STARTCHAR Caf
ENCODING 175
SWIDTH 450 0
DWIDTH 8 0
BBX 8 18 0 -3
BITMAP
00
00
FE
00
00
00
00
00
00
00
00
00
00
00
00
00
00
00
ENDCHAR

STARTCHAR Cb0
ENCODING 176
SWIDTH 450 0
DWIDTH 8 0
BBX 8 18 0 -3
BITMAP
00
60
90
90
60
00
00
00
00
00
00
00
00
00
00
00
00
00
ENDCHAR

STARTCHAR Cb1
ENCODING 177
SWIDTH 450 0
DWIDTH 8 0
BBX 8 18 0 -3
BITMAP
00
00
10
10
10
FE
10
10
10
00
00
FE
00
00
00
00
00
00
ENDCHAR

STARTCHAR Cb2
ENCODING 178
SWIDTH 450 0
DWIDTH 8 0
BBX 8 18 0 -3
BITMAP
00
30
48
08
10
20
40
78
00
00
00
00
00
00
00
00
00
00
ENDCHAR

STARTCHAR Cb3
ENCODING 179
SWIDTH 450 0
DWIDTH 8 0
BBX 8 18 0 -3
BITMAP
00
30
48
08
10
08
48
30
00
00
00
00
00
00
00
00
00
00
ENDCHAR

STARTCHAR Cb4
ENCODING 180
SWIDTH 450 0
DWIDTH 8 0
BBX 8 18 0 -3
BITMAP
00
00
18
20
00
00
00
00
00
00
00
00
00
00
00
00
00
00
ENDCHAR

STARTCHAR Cb5
ENCODING 181
SWIDTH 450 0
DWIDTH 8 0
BBX 8 18 0 -3
BITMAP
00
00
00
00
00
00
00
09
09
12
12
24
24
5B
80
00
00
00
ENDCHAR

STARTCHAR Cb6
ENCODING 182
SWIDTH 450 0
DWIDTH 8 0
BBX 8 18 0 -3
BITMAP
00
00
3E
74
F4
F4
F4
74
34
14
14
14
14
14
14
14
00
00
ENDCHAR

STARTCHAR Cb7
ENCODING 183
SWIDTH 450 0
DWIDTH 8 0
BBX 8 18 0 -3
BITMAP
00
00
00
00
00
00
00
30
30
00
00
00
00
00
00
00
00
00
ENDCHAR

STARTCHAR Cb8
ENCODING 184
SWIDTH 450 0
DWIDTH 8 0
BBX 8 18 0 -3
BITMAP
00
00
00
00
00
00
00
00
00
00
00
00
00
00
00
0C
10
00
ENDCHAR

STARTCHAR Cb9
ENCODING 185
SWIDTH 450 0
DWIDTH 8 0
BBX 8 18 0 -3
BITMAP
00
20
60
20
20
20
20
70
00
00
00
00
00
00
00
00
00
00
ENDCHAR

STARTCHAR Cba
ENCODING 186
SWIDTH 450 0
DWIDTH 8 0
BBX 8 18 0 -3
BITMAP
00
38
44
44
44
44
44
38
00
7C
00
00
00
00
00
00
00
00
ENDCHAR

STARTCHAR Cbb
ENCODING 187
SWIDTH 450 0
DWIDTH 8 0
BBX 8 18 0 -3
BITMAP
00
00
00
00
00
90
48
24
12
24
48
90
00
00
00
00
00
00
ENDCHAR

STARTCHAR Cbc
ENCODING 188
SWIDTH 450 0
DWIDTH 8 0
BBX 8 18 0 -3
BITMAP
00
00
40
C0
40
40
44
E8
10
24
4C
94
24
3E
04
00
00
00
ENDCHAR

STARTCHAR Cbd
ENCODING 189
SWIDTH 450 0
DWIDTH 8 0
BBX 8 18 0 -3
BITMAP
00
00
40
C0
40
40
44
E8
10
2C
52
82
04
08
1E
00
00
00
ENDCHAR

STARTCHAR Cbe
ENCODING 190
SWIDTH 450 0
DWIDTH 8 0
BBX 8 18 0 -3
BITMAP
00
00
60
10
60
10
94
68
10
24
4C
94
24
3E
04
00
00
00
ENDCHAR

STARTCHAR Cbf
ENCODING 191
SWIDTH 450 0
DWIDTH 8 0
BBX 8 18 0 -3
BITMAP
00
00
10
10
00
10
10
10
20
40
40
40
44
44
38
00
00
00
ENDCHAR

STARTCHAR Cc0
ENCODING 192
SWIDTH 450 0
DWIDTH 8 0
BBX 8 18 0 -3
BITMAP
00
30
08
00
10
28
28
44
44
82
FE
82
82
82
82
00
00
00
ENDCHAR

STARTCHAR Cc1
ENCODING 193
SWIDTH 450 0
DWIDTH 8 0
BBX 8 18 0 -3
BITMAP
00
18
20
00
10
28
28
44
44
82
FE
82
82
82
82
00
00
00
ENDCHAR

STARTCHAR Cc2
ENCODING 194
SWIDTH 450 0
DWIDTH 8 0
BBX 8 18 0 -3
BITMAP
00
10
28
00
10
28
28
44
44
82
FE
82
82
82
82
00
00
00
ENDCHAR

STARTCHAR Cc3
ENCODING 195
SWIDTH 450 0
DWIDTH 8 0
BBX 8 18 0 -3
BITMAP
00
72
8C
00
10
28
28
44
44
82
FE
82
82
82
82
00
00
00
ENDCHAR

STARTCHAR Cc4
ENCODING 196
SWIDTH 450 0
DWIDTH 8 0
BBX 8 18 0 -3
BITMAP
00
28
28
00
10
28
28
44
44
82
FE
82
82
82
82
00
00
00
ENDCHAR

STARTCHAR Cc5
ENCODING 197
SWIDTH 450 0
DWIDTH 8 0
BBX 8 18 0 -3
BITMAP
00
10
10
00
10
28
28
44
44
82
FE
82
82
82
82
00
00
00
ENDCHAR

STARTCHAR Cc6
ENCODING 198
SWIDTH 450 0
DWIDTH 8 0
BBX 8 18 0 -3
BITMAP
00
00
1E
28
28
48
48
88
8E
F8
88
88
88
88
8E
00
00
00
ENDCHAR

STARTCHAR Cc7
ENCODING 199
SWIDTH 450 0
DWIDTH 8 0
BBX 8 18 0 -3
BITMAP
00
00
38
44
82
82
80
80
80
80
80
82
82
44
38
04
38
00
ENDCHAR

STARTCHAR Cc8
ENCODING 200
SWIDTH 450 0
DWIDTH 8 0
BBX 8 18 0 -3
BITMAP
00
30
08
00
FE
80
80
80
80
FC
80
80
80
80
FE
00
00
00
ENDCHAR

STARTCHAR Cc9
ENCODING 201
SWIDTH 450 0
DWIDTH 8 0
BBX 8 18 0 -3
BITMAP
00
18
20
00
FE
80
80
80
80
FC
80
80
80
80
FE
00
00
00
ENDCHAR

STARTCHAR Cca
ENCODING 202
SWIDTH 450 0
DWIDTH 8 0
BBX 8 18 0 -3
BITMAP
00
10
28
00
FE
80
80
80
80
FC
80
80
80
80
FE
00
00
00
ENDCHAR

STARTCHAR Ccb
ENCODING 203
SWIDTH 450 0
DWIDTH 8 0
BBX 8 18 0 -3
BITMAP
00
28
28
00
FE
80
80
80
80
FC
80
80
80
80
FE
00
00
00
ENDCHAR

STARTCHAR Ccc
ENCODING 204
SWIDTH 450 0
DWIDTH 8 0
BBX 8 18 0 -3
BITMAP
00
30
08
00
38
10
10
10
10
10
10
10
10
10
38
00
00
00
ENDCHAR

STARTCHAR Ccd
ENCODING 205
SWIDTH 450 0
DWIDTH 8 0
BBX 8 18 0 -3
BITMAP
00
18
20
00
38
10
10
10
10
10
10
10
10
10
38
00
00
00
ENDCHAR

STARTCHAR Cce
ENCODING 206
SWIDTH 450 0
DWIDTH 8 0
BBX 8 18 0 -3
BITMAP
00
10
28
00
38
10
10
10
10
10
10
10
10
10
38
00
00
00
ENDCHAR

STARTCHAR Ccf
ENCODING 207
SWIDTH 450 0
DWIDTH 8 0
BBX 8 18 0 -3
BITMAP
00
28
28
00
38
10
10
10
10
10
10
10
10
10
38
00
00
00
ENDCHAR

STARTCHAR Cd0
ENCODING 208
SWIDTH 450 0
DWIDTH 8 0
BBX 8 18 0 -3
BITMAP
00
00
00
78
24
22
22
22
72
22
22
22
22
24
78
00
00
00
ENDCHAR

STARTCHAR Cd1
ENCODING 209
SWIDTH 450 0
DWIDTH 8 0
BBX 8 18 0 -3
BITMAP
00
72
8C
00
C2
C2
A2
A2
92
92
8A
8A
86
86
82
00
00
00
ENDCHAR

STARTCHAR Cd2
ENCODING 210
SWIDTH 450 0
DWIDTH 8 0
BBX 8 18 0 -3
BITMAP
00
30
08
00
38
44
82
82
82
82
82
82
82
44
38
00
00
00
ENDCHAR

STARTCHAR Cd3
ENCODING 211
SWIDTH 450 0
DWIDTH 8 0
BBX 8 18 0 -3
BITMAP
00
18
20
00
38
44
82
82
82
82
82
82
82
44
38
00
00
00
ENDCHAR

STARTCHAR Cd4
ENCODING 212
SWIDTH 450 0
DWIDTH 8 0
BBX 8 18 0 -3
BITMAP
00
10
28
00
38
44
82
82
82
82
82
82
82
44
38
00
00
00
ENDCHAR

STARTCHAR Cd5
ENCODING 213
SWIDTH 450 0
DWIDTH 8 0
BBX 8 18 0 -3
BITMAP
00
72
8C
00
38
44
82
82
82
82
82
82
82
44
38
00
00
00
ENDCHAR

STARTCHAR Cd6
ENCODING 214
SWIDTH 450 0
DWIDTH 8 0
BBX 8 18 0 -3
BITMAP
00
28
28
00
38
44
82
82
82
82
82
82
82
44
38
00
00
00
ENDCHAR

STARTCHAR Cd7
ENCODING 215
SWIDTH 450 0
DWIDTH 8 0
BBX 8 18 0 -3
BITMAP
00
00
00
00
00
82
44
28
10
28
44
82
00
00
00
00
00
00
ENDCHAR

STARTCHAR Cd8
ENCODING 216
SWIDTH 450 0
DWIDTH 8 0
BBX 8 18 0 -3
BITMAP
00
00
02
3A
44
86
8A
8A
92
92
A2
A2
C2
44
B8
80
00
00
ENDCHAR

STARTCHAR Cd9
ENCODING 217
SWIDTH 450 0
DWIDTH 8 0
BBX 8 18 0 -3
BITMAP
00
30
08
00
82
82
82
82
82
82
82
82
82
44
38
00
00
00
ENDCHAR

STARTCHAR Cda
ENCODING 218
SWIDTH 450 0
DWIDTH 8 0
BBX 8 18 0 -3
BITMAP
00
18
20
00
82
82
82
82
82
82
82
82
82
44
38
00
00
00
ENDCHAR

STARTCHAR Cdb
ENCODING 219
SWIDTH 450 0
DWIDTH 8 0
BBX 8 18 0 -3
BITMAP
00
10
28
00
82
82
82
82
82
82
82
82
82
44
38
00
00
00
ENDCHAR

STARTCHAR Cdc
ENCODING 220
SWIDTH 450 0
DWIDTH 8 0
BBX 8 18 0 -3
BITMAP
00
28
28
00
82
82
82
82
82
82
82
82
82
44
38
00
00
00
ENDCHAR

STARTCHAR Cdd
ENCODING 221
SWIDTH 450 0
DWIDTH 8 0
BBX 8 18 0 -3
BITMAP
00
18
20
00
82
82
44
44
28
10
10
10
10
10
10
00
00
00
ENDCHAR

STARTCHAR Cde
ENCODING 222
SWIDTH 450 0
DWIDTH 8 0
BBX 8 18 0 -3
BITMAP
00
00
00
70
20
3C
22
22
22
22
3C
20
20
20
70
00
00
00
ENDCHAR

STARTCHAR Cdf
ENCODING 223
SWIDTH 450 0
DWIDTH 8 0
BBX 8 18 0 -3
BITMAP
00
00
10
28
24
24
24
28
28
24
22
22
22
2A
44
40
80
00
ENDCHAR

STARTCHAR Ce0
ENCODING 224
SWIDTH 450 0
DWIDTH 8 0
BBX 8 18 0 -3
BITMAP
00
00
00
00
20
10
00
78
04
04
7C
84
84
8C
74
00
00
00
ENDCHAR

STARTCHAR Ce1
ENCODING 225
SWIDTH 450 0
DWIDTH 8 0
BBX 8 18 0 -3
BITMAP
00
00
00
00
10
20
00
78
04
04
7C
84
84
8C
74
00
00
00
ENDCHAR

STARTCHAR Ce2
ENCODING 226
SWIDTH 450 0
DWIDTH 8 0
BBX 8 18 0 -3
BITMAP
00
00
00
00
30
48
00
78
04
04
7C
84
84
8C
74
00
00
00
ENDCHAR

STARTCHAR Ce3
ENCODING 227
SWIDTH 450 0
DWIDTH 8 0
BBX 8 18 0 -3
BITMAP
00
00
00
00
64
98
00
78
04
04
7C
84
84
8C
74
00
00
00
ENDCHAR

STARTCHAR Ce4
ENCODING 228
SWIDTH 450 0
DWIDTH 8 0
BBX 8 18 0 -3
BITMAP
00
00
00
00
48
48
00
78
04
04
7C
84
84
8C
74
00
00
00
ENDCHAR

STARTCHAR Ce5
ENCODING 229
SWIDTH 450 0
DWIDTH 8 0
BBX 8 18 0 -3
BITMAP
00
00
00
00
10
10
00
78
04
04
7C
84
84
8C
74
00
00
00
ENDCHAR

STARTCHAR Ce6
ENCODING 230
SWIDTH 450 0
DWIDTH 8 0
BBX 8 18 0 -3
BITMAP
00
00
00
00
00
00
00
6C
12
12
7C
90
90
90
6E
00
00
00
ENDCHAR

STARTCHAR Ce7
ENCODING 231
SWIDTH 450 0
DWIDTH 8 0
BBX 8 18 0 -3
BITMAP
00
00
00
00
00
00
00
78
84
80
80
80
84
84
78
08
30
00
ENDCHAR

STARTCHAR Ce8
ENCODING 232
SWIDTH 450 0
DWIDTH 8 0
BBX 8 18 0 -3
BITMAP
00
00
00
00
20
10
00
78
84
84
FC
80
80
80
78
00
00
00
ENDCHAR

STARTCHAR Ce9
ENCODING 233
SWIDTH 450 0
DWIDTH 8 0
BBX 8 18 0 -3
BITMAP
00
00
00
00
10
20
00
78
84
84
FC
80
80
80
78
00
00
00
ENDCHAR

STARTCHAR Cea
ENCODING 234
SWIDTH 450 0
DWIDTH 8 0
BBX 8 18 0 -3
BITMAP
00
00
00
00
30
48
00
78
84
84
FC
80
80
80
78
00
00
00
ENDCHAR

STARTCHAR Ceb
ENCODING 235
SWIDTH 450 0
DWIDTH 8 0
BBX 8 18 0 -3
BITMAP
00
00
00
00
48
48
00
78
84
84
FC
80
80
80
78
00
00
00
ENDCHAR

STARTCHAR Cec
ENCODING 236
SWIDTH 450 0
DWIDTH 8 0
BBX 8 18 0 -3
BITMAP
00
00
00
00
30
08
00
10
10
10
10
10
10
10
10
00
00
00
ENDCHAR

STARTCHAR Ced
ENCODING 237
SWIDTH 450 0
DWIDTH 8 0
BBX 8 18 0 -3
BITMAP
00
00
00
00
18
20
00
10
10
10
10
10
10
10
10
00
00
00
ENDCHAR

STARTCHAR Cee
ENCODING 238
SWIDTH 450 0
DWIDTH 8 0
BBX 8 18 0 -3
BITMAP
00
00
00
00
10
28
00
10
10
10
10
10
10
10
10
00
00
00
ENDCHAR

STARTCHAR Cef
ENCODING 239
SWIDTH 450 0
DWIDTH 8 0
BBX 8 18 0 -3
BITMAP
00
00
00
00
28
28
00
10
10
10
10
10
10
10
10
00
00
00
ENDCHAR

STARTCHAR Cf0
ENCODING 240
SWIDTH 450 0
DWIDTH 8 0
BBX 8 18 0 -3
BITMAP
00
00
00
60
14
18
28
04
3C
42
42
42
42
42
3C
00
00
00
ENDCHAR

STARTCHAR Cf1
ENCODING 241
SWIDTH 450 0
DWIDTH 8 0
BBX 8 18 0 -3
BITMAP
00
00
00
00
64
98
00
B8
C4
84
84
84
84
84
84
00
00
00
ENDCHAR

STARTCHAR Cf2
ENCODING 242
SWIDTH 450 0
DWIDTH 8 0
BBX 8 18 0 -3
BITMAP
00
00
00
00
20
10
00
78
84
84
84
84
84
84
78
00
00
00
ENDCHAR

STARTCHAR Cf3
ENCODING 243
SWIDTH 450 0
DWIDTH 8 0
BBX 8 18 0 -3
BITMAP
00
00
00
00
10
20
00
78
84
84
84
84
84
84
78
00
00
00
ENDCHAR

STARTCHAR Cf4
ENCODING 244
SWIDTH 450 0
DWIDTH 8 0
BBX 8 18 0 -3
BITMAP
00
00
00
00
30
48
00
78
84
84
84
84
84
84
78
00
00
00
ENDCHAR

STARTCHAR Cf5
ENCODING 245
SWIDTH 450 0
DWIDTH 8 0
BBX 8 18 0 -3
BITMAP
00
00
00
00
64
98
00
78
84
84
84
84
84
84
78
00
00
00
ENDCHAR

STARTCHAR Cf6
ENCODING 246
SWIDTH 450 0
DWIDTH 8 0
BBX 8 18 0 -3
BITMAP
00
00
00
00
48
48
00
78
84
84
84
84
84
84
78
00
00
00
ENDCHAR

STARTCHAR Cf7
ENCODING 247
SWIDTH 450 0
DWIDTH 8 0
BBX 8 18 0 -3
BITMAP
00
00
00
00
00
18
18
00
00
7E
00
00
18
18
00
00
00
00
ENDCHAR

STARTCHAR Cf8
ENCODING 248
SWIDTH 450 0
DWIDTH 8 0
BBX 8 18 0 -3
BITMAP
00
00
00
00
00
00
04
7C
88
94
94
A4
A4
44
F8
80
00
00
ENDCHAR

STARTCHAR Cf9
ENCODING 249
SWIDTH 450 0
DWIDTH 8 0
BBX 8 18 0 -3
BITMAP
00
00
00
00
20
10
00
84
84
84
84
84
84
8C
74
00
00
00
ENDCHAR

STARTCHAR Cfa
ENCODING 250
SWIDTH 450 0
DWIDTH 8 0
BBX 8 18 0 -3
BITMAP
00
00
00
00
10
20
00
84
84
84
84
84
84
8C
74
00
00
00
ENDCHAR

STARTCHAR Cfb
ENCODING 251
SWIDTH 450 0
DWIDTH 8 0
BBX 8 18 0 -3
BITMAP
00
00
00
00
30
48
00
84
84
84
84
84
84
8C
74
00
00
00
ENDCHAR

STARTCHAR Cfc
ENCODING 252
SWIDTH 450 0
DWIDTH 8 0
BBX 8 18 0 -3
BITMAP
00
00
00
00
48
48
00
84
84
84
84
84
84
8C
74
00
00
00
ENDCHAR

STARTCHAR Cfd
ENCODING 253
SWIDTH 450 0
DWIDTH 8 0
BBX 8 18 0 -3
BITMAP
00
00
00
00
18
20
00
44
44
44
44
44
3C
04
04
44
38
00
ENDCHAR

STARTCHAR Cfe
ENCODING 254
SWIDTH 450 0
DWIDTH 8 0
BBX 8 18 0 -3
BITMAP
00
00
00
00
00
00
40
40
7C
42
42
42
7C
40
40
40
40
00
ENDCHAR

STARTCHAR Cff
ENCODING 255
SWIDTH 450 0
DWIDTH 8 0
BBX 8 18 0 -3
BITMAP
00
00
00
00
28
28
00
44
44
44
44
44
3C
04
04
44
38
00
ENDCHAR
ENDFONT
